# xmcd
# Copyright (C) 1995-1998 Ti Kan
#
# Track frame offsets:
#       150
#       13098
#       22006
#       32087
#       51655
#       63912
#       77926
#       91385
#       101447
#       112655
#       125338
#       136305
#       145901
#       157205
#       167016
#       179887
#       187163
#       200779
#       215833
#       228553
#       239087
#       254738
#       271843
#       283098
#       291847
#       303653
#       312528
#       325074
#       338043
#
# Disc length: 4737 seconds
#
# Revision: 1
# Processed by: cddbd v1.5.2PL0 Copyright (c) Steve Scherf et al.
# Submitted via: CD-Transfer v1.0
#
DISCID=d2127f1d
DTITLE=Rockabilly 2 - 
DYEAR=1900
DGENRE=
TTITLE0=Baboons, The Drinkin' Gasoline
TTITLE1=Backdraft 200 Miles
TTITLE2=Backdraft Tennessee Saturday Night
TTITLE3=Bad Luck Bandits Bring My Baby Back
TTITLE4=Bad News From Pretty Red Lips Fatboy
TTITLE5=Black Knights, The Blue, Blue (K)nights
TTITLE6=Black Knights, The Powder And Dynamite
TTITLE7=Black Knights, The Raw Rhythm Boogie
TTITLE8=Black Knights, The Worried Mind
TTITLE9=Black Raven and Falcons Fool's Paradise
TTITLE10=Blue Cats, The Stop That Bass
TTITLE11=Boneville Crazy Rock
TTITLE12=Bopcats Lucky 13 (Instr,)
TTITLE13=Bopshack Stompers, The Rock Bop
TTITLE14=Brian Setzer Orchestra, The Jump, Jive And Wail
TTITLE15=Crazy Cavan and The Rhythm Rockers Hey Good Looking
TTITLE16=Cramps, The Goo Goo Muck
TTITLE17=Cramps, The What's Inside A Girl
TTITLE18=Crestlines, The Burning Love
TTITLE19=Crestlines, The She's Mine
TTITLE20=Edmunds, Dave (I Am ) A Lover, Not A Fighter
TTITLE21=Dusty's 45 Break The Love
TTITLE22=Eddy and The Backfires I Fel Rockin'
TTITLE23=Elvis Hitler Live Fast, Die Young
TTITLE24=Mizell, Hank Jungle Rock
TTITLE25=Hellzaboppers, The Let's Bop
TTITLE26=Hot Riffs Face It With A Gin
TTITLE27=Hub Caps, The Tennessee Border
TTITLE28=May, Imelda Pulling The Rug
EXTD=
EXTT0=
EXTT1=
EXTT2=
EXTT3=
EXTT4=
EXTT5=
EXTT6=
EXTT7=
EXTT8=
EXTT9=
EXTT10=
EXTT11=
EXTT12=
EXTT13=
EXTT14=
EXTT15=
EXTT16=
EXTT17=
EXTT18=
EXTT19=
EXTT20=
EXTT21=
EXTT22=
EXTT23=
EXTT24=
EXTT25=
EXTT26=
EXTT27=
EXTT28=
PLAYORDER=
